# xmcd
# Track frame offsets:
# 150
# 12061
# 26393
# 38375
# 52730
# 68988
# 86674
# 102221
# 120424
# 136186
# 154510
# 168856
# 183586
# 199563
# 219300
#
# Disc length: 3147 seconds
# Revision: 0
# Processed by: cddbd v1.5.1PL0 Copyright (c) Steve Scherf et al.
# Submitted via: VisiTrax 2.9.10.228 - For more info visit www.synapsa.com
#
DISCID=ab0c490f
DTITLE=Milsap, Ronnie - CB90030
DYEAR=1900
DGENRE=Karaoke
TTITLE0=Pure Love
TTITLE1=I'd Be A Legend In My Time
TTITLE2=Daydreams About Night Things
TTITLE3=I'm A Stand By My Woman Man
TTITLE4=It Was Almost Like A Song
TTITLE5=What A Difference You've Made In My Life
TTITLE6=Back On My Mind Again
TTITLE7=Smoky Mountain Rain
TTITLE8=There's No Gettin' Over Me
TTITLE9=Lost In The Fifties Tonight
TTITLE10=Snap Your Fingers
TTITLE11=Don't You Ever Get Tired Of Hurtin' Me
TTITLE12=Houston Solution
TTITLE13=Since I Don't Have You
TTITLE14=Turn That Radio On
EXTD=
EXTT0=
EXTT1=
EXTT2=
EXTT3=
EXTT4=
EXTT5=
EXTT6=
EXTT7=
EXTT8=
EXTT9=
EXTT10=
EXTT11=
EXTT12=
EXTT13=
EXTT14=
PLAYORDER=
